# xmcd
#
# Track frame offsets: 
#        150
#        35609
#        62083
#        92735
#        108038
#        136671
#        168932
#
# Disc length: 2610 seconds
#
# Revision: 2
# Processed by: cddbd v1.5.2PL0 Copyright (c) Steve Scherf et al.
# Submitted via: ExactAudioCopy v1.0b1
#
DISCID=4f0a3007
DTITLE=Dusko Gojkovic - Slavic Mood
DYEAR=1975
DGENRE=Jazz
TTITLE0=Slavic Mood
TTITLE1=Got No Money
TTITLE2=No Love Without Tears
TTITLE3=Old Fisherman's Daughter
TTITLE4=Kosmet
TTITLE5=East Of Montenegro
TTITLE6=Flying Rome
EXTD=YEAR: 2006
EXTT0=
EXTT1=
EXTT2=
EXTT3=
EXTT4=
EXTT5=
EXTT6=
PLAYORDER=
